<svg width="31" height="31" viewBox="0 0 31 31" fill="none" xmlns="http://www.w3.org/2000/svg">
<path d="M22.2369 30.5282H8.27029C2.11102 30.5282 0.239502 28.6566 0.239502 22.4974V8.53079C0.239502 2.37152 2.11102 0.5 8.27029 0.5H10.3653C12.8094 0.5 13.5776 1.2961 14.5552 2.59499L16.6502 5.3883C17.1111 6.00283 17.181 6.08663 18.0469 6.08663H22.2369C28.3961 6.08663 30.2677 7.95816 30.2677 14.1174V22.4974C30.2677 28.6566 28.3961 30.5282 22.2369 30.5282ZM8.27029 2.59499C3.27025 2.59499 2.33449 3.54472 2.33449 8.53079V22.4974C2.33449 27.4834 3.27025 28.4332 8.27029 28.4332H22.2369C27.2369 28.4332 28.1727 27.4834 28.1727 22.4974V14.1174C28.1727 9.13135 27.2369 8.18162 22.2369 8.18162H18.0469C16.2592 8.18162 15.6726 7.56709 14.9742 6.6453L12.8793 3.85198C12.153 2.88829 11.9295 2.59499 10.3653 2.59499H8.27029V2.59499Z" fill="#4318FF"/>
</svg>
