<svg width="30" height="31" viewBox="0 0 30 31" fill="none" xmlns="http://www.w3.org/2000/svg">
<path d="M10.897 14.6193C10.8547 14.6193 10.8265 14.6193 10.7842 14.6193C10.7137 14.6052 10.6151 14.6052 10.5305 14.6193C6.44214 14.4925 3.35474 11.2782 3.35474 7.31672C3.35474 3.28477 6.63951 0 10.6715 0C14.7034 0 17.9882 3.28477 17.9882 7.31672C17.9741 11.2782 14.8726 14.4925 10.9393 14.6193C10.9252 14.6193 10.9111 14.6193 10.897 14.6193ZM10.6715 2.11466C7.80962 2.11466 5.46939 4.45488 5.46939 7.31672C5.46939 10.1363 7.66864 12.406 10.4741 12.5047C10.5587 12.4906 10.7419 12.4906 10.9252 12.5047C13.6884 12.3778 15.8594 10.1081 15.8735 7.31672C15.8735 4.45488 13.5333 2.11466 10.6715 2.11466Z" fill="#4318FF"/>
<path d="M21.3009 14.4504C21.2586 14.4504 21.2163 14.4504 21.174 14.4363C20.596 14.4926 20.0039 14.0838 19.9475 13.5058C19.8912 12.9278 20.2436 12.4062 20.8216 12.3357C20.9908 12.3216 21.174 12.3216 21.3291 12.3216C23.3874 12.2088 24.9945 10.5171 24.9945 8.44472C24.9945 6.30187 23.2605 4.56785 21.1177 4.56785C20.5396 4.58194 20.0603 4.10262 20.0603 3.52461C20.0603 2.94661 20.5396 2.46729 21.1177 2.46729C24.4165 2.46729 27.1092 5.15995 27.1092 8.45882C27.1092 11.7013 24.5716 14.3235 21.3432 14.4504C21.3291 14.4504 21.315 14.4504 21.3009 14.4504Z" fill="#4318FF"/>
<path d="M10.9115 30.0282C8.14833 30.0282 5.37107 29.3233 3.27051 27.9135C1.31093 26.6165 0.239502 24.8402 0.239502 22.9088C0.239502 20.9774 1.31093 19.187 3.27051 17.8759C7.49983 15.0705 14.3513 15.0705 18.5524 17.8759C20.4979 19.1729 21.5835 20.9492 21.5835 22.8806C21.5835 24.812 20.512 26.6024 18.5524 27.9135C16.4378 29.3233 13.6746 30.0282 10.9115 30.0282ZM4.44062 19.6522C3.08724 20.5545 2.35416 21.7105 2.35416 22.9229C2.35416 24.1212 3.10134 25.2772 4.44062 26.1654C7.95096 28.5197 13.872 28.5197 17.3823 26.1654C18.7357 25.2631 19.4688 24.1071 19.4688 22.8947C19.4688 21.6964 18.7216 20.5404 17.3823 19.6522C13.872 17.312 7.95096 17.312 4.44062 19.6522Z" fill="#4318FF"/>
<path d="M23.8388 27.4907C23.3454 27.4907 22.9084 27.1524 22.8097 26.6448C22.6969 26.0668 23.0635 25.517 23.6274 25.3901C24.5155 25.2069 25.3332 24.8544 25.9676 24.361C26.7712 23.7548 27.2082 22.9935 27.2082 22.19C27.2082 21.3864 26.7712 20.6251 25.9817 20.033C25.3614 19.5537 24.586 19.2153 23.6697 19.0039C23.1057 18.877 22.7392 18.3131 22.8661 17.7351C22.993 17.1712 23.5569 16.8046 24.1349 16.9315C25.3473 17.1994 26.4046 17.6787 27.2646 18.3413C28.5757 19.3281 29.3228 20.7238 29.3228 22.19C29.3228 23.6561 28.5616 25.0518 27.2505 26.0527C26.3764 26.7294 25.2768 27.2228 24.0644 27.4625C23.9798 27.4907 23.9093 27.4907 23.8388 27.4907Z" fill="#4318FF"/>
<path d="M10.897 14.6193C10.8547 14.6193 10.8265 14.6193 10.7842 14.6193C10.7137 14.6052 10.6151 14.6052 10.5305 14.6193C6.44214 14.4925 3.35474 11.2782 3.35474 7.31672C3.35474 3.28477 6.63951 0 10.6715 0C14.7034 0 17.9882 3.28477 17.9882 7.31672C17.9741 11.2782 14.8726 14.4925 10.9393 14.6193C10.9252 14.6193 10.9111 14.6193 10.897 14.6193ZM10.6715 2.11466C7.80962 2.11466 5.46939 4.45488 5.46939 7.31672C5.46939 10.1363 7.66864 12.406 10.4741 12.5047C10.5587 12.4906 10.7419 12.4906 10.9252 12.5047C13.6884 12.3778 15.8594 10.1081 15.8735 7.31672C15.8735 4.45488 13.5333 2.11466 10.6715 2.11466Z" fill="#4318FF"/>
<path d="M10.9115 30.0282C8.14833 30.0282 5.37107 29.3233 3.27051 27.9135C1.31093 26.6165 0.239502 24.8402 0.239502 22.9088C0.239502 20.9774 1.31093 19.187 3.27051 17.8759C7.49983 15.0705 14.3513 15.0705 18.5524 17.8759C20.4979 19.1729 21.5835 20.9492 21.5835 22.8806C21.5835 24.812 20.512 26.6024 18.5524 27.9135C16.4378 29.3233 13.6746 30.0282 10.9115 30.0282ZM4.44062 19.6522C3.08724 20.5545 2.35416 21.7105 2.35416 22.9229C2.35416 24.1212 3.10134 25.2772 4.44062 26.1654C7.95096 28.5197 13.872 28.5197 17.3823 26.1654C18.7357 25.2631 19.4688 24.1071 19.4688 22.8947C19.4688 21.6964 18.7216 20.5404 17.3823 19.6522C13.872 17.312 7.95096 17.312 4.44062 19.6522Z" fill="#4318FF"/>
</svg>
