<svg width="24" height="24" viewBox="0 0 24 24" fill="none" xmlns="http://www.w3.org/2000/svg">
<path fill-rule="evenodd" clip-rule="evenodd" d="M6.87695 22L9.99729 22.9287V21.7143L10.252 21.4286H12.035V22.8572V23.8572H10.1247L7.76846 22.7143L6.87695 22Z" fill="#CDBDB2"/>
<path fill-rule="evenodd" clip-rule="evenodd" d="M17.0654 22L14.0088 22.9287V21.7143L13.7541 21.4286H11.9711V22.8572V23.8572H13.8815L16.2375 22.7143L17.0654 22Z" fill="#CDBDB2"/>
<path fill-rule="evenodd" clip-rule="evenodd" d="M10.2518 19.3572L9.99707 21.7143L10.3154 21.4286H13.6267L14.0088 21.7143L13.7541 19.3572L13.2447 19L10.6975 19.0715L10.2518 19.3572Z" fill="#393939"/>
<path fill-rule="evenodd" clip-rule="evenodd" d="M8.5332 3.42859L10.0615 7.42859L10.762 19.0715H13.2455L14.0096 7.42859L15.4106 3.42859H8.5332Z" fill="#F89C35"/>
<path fill-rule="evenodd" clip-rule="evenodd" d="M1.8465 12.2144L0.0634766 18L4.52102 17.7143H7.38653V15.2144L7.25917 10.0715L6.62238 10.643L1.8465 12.2144Z" fill="#F89D35"/>
<path fill-rule="evenodd" clip-rule="evenodd" d="M5.22168 12.8572L10.4434 13L9.87032 16L7.38677 15.2857L5.22168 12.8572Z" fill="#D87C30"/>
<path fill-rule="evenodd" clip-rule="evenodd" d="M5.22168 12.9286L7.38677 15.2143V17.5L5.22168 12.9286Z" fill="#EA8D3A"/>
<path fill-rule="evenodd" clip-rule="evenodd" d="M7.38672 15.2856L9.93389 15.9999L10.7618 19.0714L10.1886 19.4285L7.38672 17.5714V15.2856Z" fill="#F89D35"/>
<path fill-rule="evenodd" clip-rule="evenodd" d="M7.38639 17.5714L6.87695 22L10.252 19.3572L7.38639 17.5714Z" fill="#EB8F35"/>
<path fill-rule="evenodd" clip-rule="evenodd" d="M10.4434 13L10.7619 19.0715L9.80664 15.9643L10.4434 13Z" fill="#EA8E3A"/>
<path fill-rule="evenodd" clip-rule="evenodd" d="M4.45703 17.6429L7.38628 17.5714L6.87684 22L4.45703 17.6429Z" fill="#D87C30"/>
<path fill-rule="evenodd" clip-rule="evenodd" d="M1.46442 23.9287L6.8771 22L4.45729 17.6429L0.0634766 18L1.46442 23.9287Z" fill="#EB8F35"/>
<path fill-rule="evenodd" clip-rule="evenodd" d="M10.0613 7.42859L7.32315 10L5.22168 12.8572L10.4434 13.0715L10.0613 7.42859Z" fill="#E8821E"/>
<path fill-rule="evenodd" clip-rule="evenodd" d="M6.87695 22L10.252 19.3572L9.99729 21.6429V22.9286L7.70484 22.4285L6.87695 22Z" fill="#DFCEC3"/>
<path fill-rule="evenodd" clip-rule="evenodd" d="M17.0654 22L13.7541 19.3572L14.0088 21.6429V22.9286L16.3013 22.4285L17.0654 22Z" fill="#DFCEC3"/>
<path fill-rule="evenodd" clip-rule="evenodd" d="M9.04264 14.2856L9.74316 15.9286L7.25962 15.2143L9.04264 14.2856Z" fill="#393939"/>
<path fill-rule="evenodd" clip-rule="evenodd" d="M1.40039 0.0715332L10.0608 7.42861L8.5962 3.42861L1.40039 0.0715332Z" fill="#E88F35"/>
<path fill-rule="evenodd" clip-rule="evenodd" d="M1.40111 0.0714111L0.254883 3.99998L0.891675 8.2857L0.445921 8.57141L1.08271 9.21427L0.573279 9.71427L1.27375 10.4286L0.827996 10.8571L1.84686 12.2857L6.62281 10.6428C8.95771 8.5476 10.1039 7.47617 10.0615 7.42855C10.019 7.38094 7.13224 4.92855 1.40111 0.0714111Z" fill="#8E5A30"/>
<path fill-rule="evenodd" clip-rule="evenodd" d="M22.0969 12.2144L23.8799 18L19.4223 17.7143H16.5568V15.2144L16.6842 10.0715L17.321 10.643L22.0969 12.2144Z" fill="#F89D35"/>
<path fill-rule="evenodd" clip-rule="evenodd" d="M18.7217 12.8572L13.5 13L14.073 16L16.5566 15.2857L18.7217 12.8572Z" fill="#D87C30"/>
<path fill-rule="evenodd" clip-rule="evenodd" d="M18.7217 12.9286L16.5566 15.2143V17.5L18.7217 12.9286Z" fill="#EA8D3A"/>
<path fill-rule="evenodd" clip-rule="evenodd" d="M16.5566 15.2856L14.0095 15.9999L13.1816 19.0714L13.7548 19.4285L16.5566 17.5714V15.2856Z" fill="#F89D35"/>
<path fill-rule="evenodd" clip-rule="evenodd" d="M16.557 17.5714L17.0664 22L13.7551 19.4286L16.557 17.5714Z" fill="#EB8F35"/>
<path fill-rule="evenodd" clip-rule="evenodd" d="M13.4999 13L13.1815 19.0715L14.1367 15.9643L13.4999 13Z" fill="#EA8E3A"/>
<path fill-rule="evenodd" clip-rule="evenodd" d="M19.4863 17.6429L16.5571 17.5714L17.0665 22L19.4863 17.6429Z" fill="#D87C30"/>
<path fill-rule="evenodd" clip-rule="evenodd" d="M22.4789 23.9287L17.0663 22L19.4861 17.6429L23.8799 18L22.4789 23.9287Z" fill="#EB8F35"/>
<path fill-rule="evenodd" clip-rule="evenodd" d="M13.8821 7.42859L16.6202 10L18.7217 12.8572L13.5 13.0715L13.8821 7.42859Z" fill="#E8821E"/>
<path fill-rule="evenodd" clip-rule="evenodd" d="M14.9007 14.2856L14.2002 15.9286L16.6837 15.2143L14.9007 14.2856Z" fill="#393939"/>
<path fill-rule="evenodd" clip-rule="evenodd" d="M22.543 0.0715332L13.8826 7.42861L15.3472 3.42861L22.543 0.0715332Z" fill="#E88F35"/>
<path fill-rule="evenodd" clip-rule="evenodd" d="M22.5423 0.0714111L23.6885 3.99998L23.0517 8.2857L23.4974 8.57141L22.8606 9.21427L23.3701 9.71427L22.6696 10.4286L23.1154 10.8571L22.0965 12.2857L17.3206 10.6428C14.9856 8.5476 13.8394 7.47617 13.8819 7.42855C13.9243 7.38094 16.8111 4.92855 22.5423 0.0714111Z" fill="#8E5A30"/>
</svg>
