<svg width="22" height="31" viewBox="0 0 22 31" fill="none" xmlns="http://www.w3.org/2000/svg">
<path d="M10.898 14.6193C10.8557 14.6193 10.8275 14.6193 10.7852 14.6193C10.7147 14.6052 10.616 14.6052 10.5315 14.6193C6.44311 14.4925 3.35571 11.2782 3.35571 7.31672C3.35571 3.28477 6.64048 0 10.6724 0C14.7044 0 17.9891 3.28477 17.9891 7.31672C17.9751 11.2782 14.8736 14.4925 10.9403 14.6193C10.9262 14.6193 10.9121 14.6193 10.898 14.6193ZM10.6724 2.11466C7.81059 2.11466 5.47037 4.45488 5.47037 7.31672C5.47037 10.1363 7.66962 12.406 10.4751 12.5047C10.5596 12.4906 10.7429 12.4906 10.9262 12.5047C13.6893 12.3778 15.8604 10.1081 15.8745 7.31672C15.8745 4.45488 13.5343 2.11466 10.6724 2.11466Z" fill="#4318FF"/>
<path d="M10.9115 30.0282C8.14833 30.0282 5.37107 29.3233 3.27051 27.9135C1.31093 26.6165 0.239502 24.8402 0.239502 22.9088C0.239502 20.9774 1.31093 19.187 3.27051 17.8759C7.49983 15.0705 14.3513 15.0705 18.5524 17.8759C20.4979 19.1729 21.5835 20.9492 21.5835 22.8806C21.5835 24.812 20.512 26.6024 18.5524 27.9135C16.4378 29.3233 13.6746 30.0282 10.9115 30.0282ZM4.44062 19.6522C3.08724 20.5545 2.35416 21.7105 2.35416 22.9229C2.35416 24.1212 3.10134 25.2772 4.44062 26.1654C7.95096 28.5197 13.872 28.5197 17.3823 26.1654C18.7357 25.2631 19.4688 24.1071 19.4688 22.8947C19.4688 21.6964 18.7216 20.5404 17.3823 19.6522C13.872 17.312 7.95096 17.312 4.44062 19.6522Z" fill="#4318FF"/>
</svg>
