<svg width="29" height="31" viewBox="0 0 29 31" fill="none" xmlns="http://www.w3.org/2000/svg">
<path d="M14.7767 30.9343C13.8308 30.9343 12.8706 30.7225 12.1223 30.2848L4.35672 25.809C1.19401 23.677 0.996338 23.3522 0.996338 20.006V11.845C0.996338 8.49876 1.17989 8.17402 4.28613 6.07025L12.1082 1.55208C13.5907 0.690809 15.9204 0.690809 17.4029 1.55208L25.1968 6.04201C28.3595 8.17402 28.5571 8.49876 28.5571 11.845V19.9918C28.5571 23.3381 28.3736 23.6629 25.2674 25.7666L17.4453 30.2848C16.6828 30.7225 15.7227 30.9343 14.7767 30.9343ZM14.7767 3.03461C14.1837 3.03461 13.6048 3.14756 13.1954 3.38759L5.42979 7.87752C3.12835 9.43064 3.12835 9.43063 3.12835 11.845V19.9918C3.12835 22.4062 3.12835 22.4062 5.48626 24.0017L13.1954 28.4493C14.0284 28.9293 15.5392 28.9293 16.3722 28.4493L24.1378 23.9594C26.4251 22.4062 26.4251 22.4062 26.4251 19.9918V11.845C26.4251 9.43063 26.4251 9.43064 24.0672 7.83516L16.3581 3.38759C15.9486 3.14756 15.3698 3.03461 14.7767 3.03461Z" fill="#4318FF"/>
<path d="M14.7764 21.2204C11.8537 21.2204 9.48169 18.8484 9.48169 15.9257C9.48169 13.003 11.8537 10.631 14.7764 10.631C17.6991 10.631 20.0711 13.003 20.0711 15.9257C20.0711 18.8484 17.6991 21.2204 14.7764 21.2204ZM14.7764 12.7489C13.0256 12.7489 11.5996 14.1749 11.5996 15.9257C11.5996 17.6765 13.0256 19.1025 14.7764 19.1025C16.5272 19.1025 17.9532 17.6765 17.9532 15.9257C17.9532 14.1749 16.5272 12.7489 14.7764 12.7489Z" fill="#4318FF"/>
</svg>
