<svg width="26" height="31" viewBox="0 0 26 31" fill="none" xmlns="http://www.w3.org/2000/svg">
<path d="M13.1085 18.2314C10.1572 18.2314 7.74634 15.8313 7.74634 12.8623C7.74634 9.89335 10.1572 7.50708 13.1085 7.50708C16.0598 7.50708 18.4707 9.90722 18.4707 12.8762C18.4707 15.8452 16.0598 18.2314 13.1085 18.2314ZM13.1085 9.58813C11.3073 9.58813 9.8247 11.0587 9.8247 12.8762C9.8247 14.6936 11.2934 16.1642 13.1085 16.1642C14.9236 16.1642 16.3923 14.6936 16.3923 12.8762C16.3923 11.0587 14.9098 9.58813 13.1085 9.58813Z" fill="#4318FF"/>
<path d="M13.1045 30.0282C11.0739 30.0282 9.02956 29.2464 7.43801 27.6968C3.39055 23.7322 -1.08225 17.4082 0.60534 9.88374C2.12829 3.05726 7.98682 0 13.1045 0C13.1045 0 13.1045 0 13.1182 0C18.2358 0 24.0944 3.05726 25.6173 9.8977C27.2912 17.4222 22.8184 23.7322 18.7709 27.6968C17.1794 29.2464 15.1351 30.0282 13.1045 30.0282ZM13.1045 2.09401C9.11188 2.09401 3.98052 4.25783 2.62221 10.3444C1.14043 16.9196 5.20162 22.5874 8.87864 26.1752C11.2522 28.5065 14.9704 28.5065 17.344 26.1752C21.0073 22.5874 25.0685 16.9196 23.6142 10.3444C22.2421 4.25783 17.0971 2.09401 13.1045 2.09401Z" fill="#4318FF"/>
</svg>
