<svg width="15" height="13" viewBox="0 0 15 13" fill="none" xmlns="http://www.w3.org/2000/svg">
<path d="M12.3623 3.10075C10.4198 2.92964 8.46564 2.84149 6.5173 2.84149C5.3623 2.84149 4.2073 2.89334 3.0523 2.99705L1.8623 3.10075" fill="#4318FF"/>
<path d="M12.3623 3.10075C10.4198 2.92964 8.46564 2.84149 6.5173 2.84149C5.3623 2.84149 4.2073 2.89334 3.0523 2.99705L1.8623 3.10075" stroke="#4318FF" stroke-linecap="round" stroke-linejoin="round"/>
<path d="M5.07031 2.57705L5.19865 1.89779C5.29198 1.4052 5.36198 1.03705 6.34781 1.03705H7.87615C8.86198 1.03705 8.93781 1.42594 9.02531 1.90297L9.15365 2.57705" stroke="#4318FF" stroke-linecap="round" stroke-linejoin="round"/>
<path d="M11.1089 4.73926L10.7297 9.96074C10.6655 10.7748 10.613 11.4074 8.98552 11.4074H5.24052C3.61302 11.4074 3.56052 10.7748 3.49635 9.96074L3.11719 4.73926" stroke="#4318FF" stroke-linecap="round" stroke-linejoin="round"/>
<path d="M6.13867 8.55554H8.08117" stroke="#4318FF" stroke-linecap="round" stroke-linejoin="round"/>
<path d="M5.6543 6.48151H8.57096" stroke="#4318FF" stroke-linecap="round" stroke-linejoin="round"/>
</svg>
